<!--?xml version="1.0" encoding="utf-8"?-->
<!-- Generator: Adobe Illustrator 18.0.0, SVG Export Plug-In . SVG Version: 6.00 Build 0)  -->

<svg version="1.1" id="_x32_" xmlns="http://www.w3.org/2000/svg" xmlns:xlink="http://www.w3.org/1999/xlink" x="0px" y="0px" viewBox="0 0 512 512" xml:space="preserve">
<g>
	<path class="st0" d="M256,0C114.842,0,0.002,114.84,0.002,256S114.842,512,256,512c141.158,0,255.998-114.84,255.998-256
		S397.158,0,256,0z M256,66.785c104.334,0,189.216,84.879,189.216,189.215S360.334,445.215,256,445.215S66.783,360.336,66.783,256
		S151.667,66.785,256,66.785z" style="fill:#fc0;"></path>
	<path class="st0" d="M246.151,357.482c2.591,3.416,6.087,5.299,9.849,5.299c3.762,0,7.257-1.883,9.848-5.295l69.014-90.97
		c2.665-3.513,3.393-6.945,2.046-9.655c-1.347-2.713-4.518-4.208-8.93-4.208h-26.424c-6.953,0-12.609-5.652-12.609-12.604v-75.035
		c0-8.707-7.082-15.792-15.788-15.792h-34.312c-8.706,0-15.788,7.084-15.788,15.792v75.035c0,6.952-5.656,12.604-12.609,12.604
		h-26.422c-4.412,0-7.586,1.495-8.93,4.208c-1.347,2.71-0.621,6.142,2.046,9.658L246.151,357.482z" style="fill:#fc0;"></path>
</g>
</svg>
